<?xml version="1.0" encoding="UTF-8" standalone="no"?>
<svg
        xmlns:dc="http://purl.org/dc/elements/1.1/"
        xmlns:cc="http://creativecommons.org/ns#"
        xmlns:rdf="http://www.w3.org/1999/02/22-rdf-syntax-ns#"
        xmlns:svg="http://www.w3.org/2000/svg"
        xmlns="http://www.w3.org/2000/svg"
        viewBox="0 0 493.33334 388"
        height="388"
        width="493.33334"
        xml:space="preserve"
        id="svg2"
        version="1.1"><metadata
     id="metadata8"><rdf:RDF><cc:Work
         rdf:about=""><dc:format>image/svg+xml</dc:format><dc:type
        rdf:resource="http://purl.org/dc/dcmitype/StillImage"/></cc:Work></rdf:RDF></metadata>
    <defs
            id="defs6"/>
    <g
            transform="matrix(1.3333333,0,0,-1.3333333,0,388)"
            id="g10"><g
       transform="scale(0.1)"
       id="g12"><path
         id="path14"
         style="fill:#c0004a;fill-opacity:1;fill-rule:nonzero;stroke:none"
         d="M 1.92969,8.99219 H 3690.84 V 2907 H 1.92969 V 8.99219" /><path
            id="path16"
            style="fill:#ffffff;fill-opacity:1;fill-rule:nonzero;stroke:none"
            d="m 3385.93,772.582 -6.39,-16.602 c -6.34,-16.523 -10.72,-26.195 -16.88,-39.515 -3.79,-8.309 -8.21,-17.981 -14.19,-32.082 l -129.68,-320.32 c -22.59,-56.899 -67.82,-89.571 -123.66,-89.571 -19.21,0 -41.85,5.793 -54.72,11.086 l -11.68,4.926 5.16,11.496 c 18.02,38.563 29.66,50.926 67.4,53.938 14.05,1.14 29.75,17.8 40.51,43.761 l 5.58,13.231 -117.32,271.726 c -6.17,14.422 -11.04,25.688 -15.65,36.914 -4.56,10.633 -8.95,21.082 -14.65,33.903 l -7.3,17.109 h 57.86 c 33.31,0 48.09,-10.269 60.92,-42.797 0,0 64.56,-159.664 69.26,-171.433 4.88,-11.68 10.5,-39.786 10.5,-39.786 l 2.87,0.18 c 0,0 4.2,24.965 9.22,39.606 5.07,14.601 62.51,171.07 62.51,171.07 12.09,31.984 28.47,43.16 62.56,43.16 z M 2357.84,493.047 c -10.36,0 -19.95,-4.371 -29.3,-8.707 l -1.37,-0.504 c -19.34,-8.863 -42.84,-19.766 -70.86,-19.766 -47.6,0 -109.1,29.348 -114.48,93.325 h 262.96 c 1.6,12.273 2.51,30.058 2.51,39.644 0,105.129 -69.77,175.637 -172.9,175.637 -110.33,0 -187.35,-80.184 -187.35,-195.078 0,-112.969 91.44,-194.793 205.8,-194.793 92.98,0 145.04,56.59 147.33,58.824 l 6.21,6.199 -3.79,7.809 c -8.53,17.203 -20.81,37.41 -44.76,37.41 z m -117.09,208.308 c 38.92,0 79.94,-23.867 79.94,-74.476 h -178.08 c 6.06,38.93 45.71,74.476 98.14,74.476 z m -710.09,-232.949 -74.28,117.407 63.2,94.496 c 11.64,17.207 20.44,29.441 30.11,42.621 6.85,9.273 13.92,18.804 21.68,30.304 l 13.37,18.973 h -68.81 c -38.7,0 -53.16,-8.25 -73.97,-42.527 0,0 -27.75,-46.082 -31.75,-52.461 -3.56,-6.262 -13.1,-27.614 -13.38,-28.121 h -2.45 c 0,0 -8.68,19.675 -13.92,28.121 -4.93,8.574 -31.86,52.566 -31.86,52.566 -21.99,34.172 -36.45,42.422 -73.83,42.422 h -68.71 l 13.96,-19.246 c 16.69,-23.281 26.15,-37.188 40.38,-57.777 l 73.61,-109.371 -62.47,-102.715 c -11.5,-17.203 -20.35,-29.516 -30.02,-42.336 -6.95,-9.766 -14.01,-19.129 -21.86,-30.25 l -13.33,-19.223 h 68.85 c 38.79,0 53.22,8.215 73.93,42.527 0,0 27.79,45.778 31.71,52.258 3.61,6.477 13.29,27.742 13.56,28.145 h 2.45 c 0,0 8.54,-19.531 13.65,-28.145 5.25,-8.394 32.17,-52.566 32.17,-52.566 21.95,-34.004 36.46,-42.219 73.7,-42.219 h 68.61 l -13.86,19.223 c -16.57,23.304 -26.15,37.097 -40.44,57.894 z m 298.7,299.742 c -51.52,0 -86.88,-20.796 -107.64,-38.507 h -2.51 c 0,0 2.51,20.398 2.51,41.3 v 70.547 c 0,37.957 -18.39,56.43 -56.36,56.43 H 1630.5 V 570.895 c 4.57,-118.864 78.8,-192.606 193.52,-192.606 105.95,0 185.71,83.777 185.71,194.977 0,111.156 -77.52,194.882 -180.37,194.882 z M 1814.3,460.152 c -58.68,0 -96.28,56.719 -96.28,111.934 0,83.402 53.66,113.203 97.6,113.203 50.38,0 102.12,-42.293 102.12,-112.617 0,-70.496 -52.6,-112.52 -103.44,-112.52 z M 595.258,768.148 c -51.606,0 -87.012,-20.796 -107.68,-38.507 h -2.598 c 0,0 2.598,20.398 2.598,41.3 v 70.547 c 0,37.957 -18.484,56.43 -56.445,56.43 H 396.316 V 570.895 c 4.512,-118.864 78.524,-192.606 193.422,-192.606 105.996,0 185.762,83.777 185.762,194.977 0,111.156 -77.477,194.882 -180.242,194.882 z M 580.063,460.152 c -58.633,0 -96.09,56.719 -96.09,111.934 0,83.402 53.574,113.203 97.55,113.203 50.149,0 102.168,-42.293 102.168,-112.617 0,-70.496 -52.89,-112.52 -103.628,-112.52 z m 429.017,307.996 c -113.935,0 -199.627,-83.492 -199.627,-194.195 0,-111.473 85.692,-195.664 199.627,-195.664 112.39,0 200.55,86.016 200.55,195.664 0,110.703 -86.1,194.195 -200.55,194.195 z m 0,-307.492 c -61.045,0 -107.045,48.817 -107.045,113.297 0,63.789 46,111.93 107.045,111.93 61.52,0 107.61,-48.141 107.61,-111.93 0,-64.48 -46.09,-113.297 -107.61,-113.297 z m 1919.86,316.172 c -39.28,0 -87.51,-33.723 -98.29,-76.844 v 25.739 c 0,22.711 -13.59,46.808 -56.85,46.808 h -32.16 V 399.414 h 91.25 v 154.645 c 0,22.996 2.51,42.472 7.76,59.316 13.65,44.586 47.46,73.465 86.05,73.465 9.55,0 17.3,-1.824 17.3,-1.824 l 15.01,-3.426 v 92.039 l -10.17,1.465 c -0.6,0 -10.13,1.734 -19.9,1.734 z m -265.05,0 c -39.2,0 -87.48,-33.723 -98.2,-76.844 v 25.739 c 0,22.711 -13.7,46.808 -56.86,46.808 h -32.2 V 399.414 h 91.39 v 154.645 c 0,22.996 2.33,42.472 7.53,59.316 13.82,44.586 47.64,73.465 86.29,73.465 9.35,0 17.2,-1.824 17.2,-1.824 l 15.05,-3.426 v 92.039 l -10.36,1.465 c -0.41,0 -10.03,1.734 -19.84,1.734"/><path
            id="path18"
            style="fill:#ffffff;fill-opacity:1;fill-rule:nonzero;stroke:none"
            d="m 1765.45,1455.31 c 61.94,61.58 161.98,61.58 223.84,0 61.88,-61.94 61.88,-162.19 0,-223.91 -61.86,-61.94 -161.9,-61.94 -223.84,0 -61.44,61.72 -61.44,161.97 0,223.91"/><path
            id="path20"
            style="fill:#ffffff;fill-opacity:1;fill-rule:nonzero;stroke:none"
            d="m 2031.5,1721.08 c -61.64,-61.8 -61.64,-161.83 0,-223.78 61.88,-61.86 161.98,-61.86 223.78,0 61.8,61.95 61.8,161.98 0,223.78 -61.8,61.72 -161.9,61.72 -223.78,0"/><path
            id="path22"
            style="fill:#ffffff;fill-opacity:1;fill-rule:nonzero;stroke:none"
            d="m 2297.55,1986.99 c -62.08,-61.78 -62.08,-162.26 0,-223.9 61.66,-61.8 161.91,-61.8 223.77,0 61.64,61.64 61.64,162.12 0,223.9 -61.86,61.72 -162.11,61.72 -223.77,0"/><path
            id="path24"
            style="fill:#ffffff;fill-opacity:1;fill-rule:nonzero;stroke:none"
            d="m 1499.69,1721.08 c -61.73,-61.8 -61.73,-162.19 0,-223.78 62,-61.86 162.25,-61.86 224.05,0 61.58,61.59 61.58,161.98 0,223.78 -61.8,61.72 -162.05,61.72 -224.05,0"/><path
            id="path26"
            style="fill:#ffffff;fill-opacity:1;fill-rule:nonzero;stroke:none"
            d="m 1233.9,1986.99 c -61.92,-62.01 -61.92,-162.26 0,-223.9 61.8,-61.8 161.98,-61.8 223.83,0 61.75,61.64 61.75,161.89 0,223.9 -61.85,61.72 -162.03,61.72 -223.83,0"/><path
            id="path28"
            style="fill:#ffffff;fill-opacity:1;fill-rule:nonzero;stroke:none"
            d="m 1765.45,1986.99 c -61.44,-61.78 -61.44,-162.26 0,-223.9 61.94,-61.8 161.98,-61.8 224.12,0 61.6,61.64 61.6,162.12 0,223.9 -62.14,61.72 -162.18,61.72 -224.12,0"/><path
            id="path30"
            style="fill:#ffffff;fill-opacity:1;fill-rule:nonzero;stroke:none"
            d="m 1499.69,2252.82 c -61.73,-62.07 -61.73,-162.26 0,-223.84 62,-61.78 162.25,-61.78 224.05,0 61.58,61.58 61.58,161.77 0,223.84 -61.8,61.8 -162.05,61.8 -224.05,0"/><path
            id="path32"
            style="fill:#ffffff;fill-opacity:1;fill-rule:nonzero;stroke:none"
            d="m 2031.5,2252.82 c -61.64,-62.07 -61.64,-162.26 0,-223.84 61.88,-61.78 161.98,-61.78 223.78,0 61.8,61.58 61.8,161.77 0,223.84 -61.8,61.8 -161.9,61.8 -223.78,0"/><path
            id="path34"
            style="fill:#abce37;fill-opacity:1;fill-rule:nonzero;stroke:none"
            d="m 1765.45,2518.52 c 61.94,61.94 161.98,61.94 224.12,0 61.6,-61.72 61.6,-161.75 0,-223.63 -62.14,-61.64 -162.18,-61.64 -224.12,0 -61.44,61.88 -61.44,161.91 0,223.63"/></g></g></svg>